  <svg
              width="23"
              height="28"
              viewBox="0 0 29 31"
              fill="none"
              xmlns="http://www.w3.org/2000/svg"
            >
              <path
                d="M27.5867 14.2336L15.3334 26.4869C13.8323 27.988 11.7963 28.8313 9.67339 28.8313C7.55048 28.8313 5.51452 27.988 4.01339 26.4869C2.51227 24.9858 1.66895 22.9498 1.66895 20.8269C1.66895 18.704 2.51227 16.668 4.01339 15.1669L16.2667 2.91355C17.2675 1.9128 18.6248 1.35059 20.0401 1.35059C21.4553 1.35059 22.8126 1.9128 23.8134 2.91355C24.8141 3.9143 25.3764 5.27161 25.3764 6.68688C25.3764 8.10216 24.8141 9.45947 23.8134 10.4602L11.5467 22.7136C11.0464 23.2139 10.3677 23.495 9.66006 23.495C8.95242 23.495 8.27377 23.2139 7.77339 22.7136C7.27302 22.2132 6.99191 21.5345 6.99191 20.8269C6.99191 20.1192 7.27302 19.4406 7.77339 18.9402L19.0934 7.63355"
                stroke="#0190B1"
                stroke-width="2.66667"
                stroke-linecap="round"
                stroke-linejoin="round"
              />
            </svg>