<svg width="33" height="32" viewBox="0 0 33 32" fill="none" xmlns="http://www.w3.org/2000/svg">
<path d="M29.8329 22.56V26.56C29.8344 26.9313 29.7584 27.2989 29.6096 27.6391C29.4608 27.9793 29.2427 28.2848 28.969 28.5358C28.6954 28.7868 28.3724 28.9779 28.0206 29.0969C27.6688 29.2159 27.2961 29.2601 26.9263 29.2266C22.8234 28.7808 18.8823 27.3788 15.4196 25.1333C12.198 23.0862 9.4667 20.3549 7.41959 17.1333C5.16622 13.6549 3.76391 9.69463 3.32625 5.5733C3.29293 5.20459 3.33675 4.83298 3.45492 4.48213C3.57309 4.13128 3.76301 3.80889 4.01261 3.53546C4.2622 3.26204 4.56599 3.04358 4.90464 2.894C5.24329 2.74441 5.60937 2.66698 5.97959 2.66663H9.97959C10.6267 2.66026 11.254 2.8894 11.7446 3.31134C12.2352 3.73328 12.5557 4.31923 12.6463 4.95997C12.8151 6.24006 13.1282 7.49694 13.5796 8.70663C13.759 9.18387 13.7978 9.70252 13.6915 10.2011C13.5851 10.6998 13.3381 11.1574 12.9796 11.52L11.2863 13.2133C13.1843 16.5514 15.9482 19.3152 19.2863 21.2133L20.9796 19.52C21.3421 19.1615 21.7998 18.9144 22.2984 18.8081C22.797 18.7018 23.3157 18.7406 23.7929 18.92C25.0026 19.3714 26.2595 19.6845 27.5396 19.8533C28.1873 19.9447 28.7788 20.2709 29.2016 20.77C29.6245 21.269 29.8491 21.9061 29.8329 22.56Z" stroke="#121014" stroke-width="1.5" stroke-linecap="round" stroke-linejoin="round"/>
</svg>
