<svg width="32" height="32" viewBox="0 0 32 32" fill="none" xmlns="http://www.w3.org/2000/svg">
<g clip-path="url(#clip0_1_9896)">
<path d="M26.6667 0C28.0812 0 29.4377 0.561903 30.4379 1.5621C31.4381 2.56229 32 3.91885 32 5.33333V26.6667C32 28.0812 31.4381 29.4377 30.4379 30.4379C29.4377 31.4381 28.0812 32 26.6667 32H5.33333C3.91885 32 2.56229 31.4381 1.5621 30.4379C0.561903 29.4377 0 28.0812 0 26.6667V5.33333C0 3.91885 0.561903 2.56229 1.5621 1.5621C2.56229 0.561903 3.91885 0 5.33333 0L26.6667 0ZM21.3333 9.70667V6H18.28C15.48 6 13.72 8.13333 13.72 11.1867V13.4133H10.6667V17.1067H13.72V26H17.52V17.1067H20.5733L21.3333 13.4133H17.52V11.92C17.52 10.4533 18.2933 9.70667 19.8133 9.70667H21.3333Z" fill="black"/>
</g>
<defs>
<clipPath id="clip0_1_9896">
<rect width="32" height="32" fill="white"/>
</clipPath>
</defs>
</svg>
