<svg width="32" height="32" viewBox="0 0 32 32" fill="none" xmlns="http://www.w3.org/2000/svg">
<g clip-path="url(#clip0_1_9892)">
<path d="M26.6667 0C28.0812 0 29.4377 0.561903 30.4379 1.5621C31.4381 2.56229 32 3.91885 32 5.33333V26.6667C32 28.0812 31.4381 29.4377 30.4379 30.4379C29.4377 31.4381 28.0812 32 26.6667 32H5.33333C3.91885 32 2.56229 31.4381 1.5621 30.4379C0.561903 29.4377 0 28.0812 0 26.6667V5.33333C0 3.91885 0.561903 2.56229 1.5621 1.5621C2.56229 0.561903 3.91885 0 5.33333 0L26.6667 0ZM20.1467 6H11.8667C8.44 6 6.13333 8.2 6 11.5467V20.12C6 21.8533 6.56 23.3333 7.69333 24.4267C8.73681 25.403 10.1046 25.9586 11.5333 25.9867L11.8933 26H20.1067C21.84 26 23.3067 25.44 24.3467 24.4267C25.3843 23.3789 25.9726 21.9679 25.9867 20.4933L26 20.1467V11.8667C26 10.16 25.44 8.72 24.3867 7.66667C23.3496 6.63742 21.9543 6.04967 20.4933 6.02667L20.1467 6.01333V6ZM11.88 7.86667H20.2C21.4 7.86667 22.4133 8.21333 23.1333 8.93333C23.76 9.6 24.16 10.5067 24.2133 11.56V20.1333C24.2133 21.3867 23.7867 22.4 23.0533 23.08C22.3867 23.7067 21.4933 24.0667 20.4133 24.12H11.8933C10.68 24.12 9.66667 23.7733 8.94667 23.08C8.28 22.4133 7.92 21.52 7.86667 20.4133V11.84C7.86667 10.64 8.21333 9.62667 8.93333 8.90667C9.66215 8.24075 10.6128 7.87001 11.6 7.86667H20.2H11.8933H11.88ZM16 10.8C14.6956 10.8938 13.4751 11.4782 12.5841 12.4356C11.6932 13.3929 11.1979 14.6522 11.1979 15.96C11.1979 17.2678 11.6932 18.5271 12.5841 19.4844C13.4751 20.4418 14.6956 21.0262 16 21.12C17.3044 21.0262 18.5249 20.4418 19.4159 19.4844C20.3068 18.5271 20.8022 17.2678 20.8022 15.96C20.8022 14.6522 20.3068 13.3929 19.4159 12.4356C18.5249 11.4782 17.3044 10.8938 16 10.8ZM16 12.6533C16.8748 12.6603 17.7118 13.0109 18.3305 13.6295C18.9491 14.2482 19.2997 15.0852 19.3067 15.96C19.2997 16.8348 18.9491 17.6718 18.3305 18.2905C17.7118 18.9091 16.8748 19.2597 16 19.2667C15.1252 19.2597 14.2882 18.9091 13.6695 18.2905C13.0509 17.6718 12.7003 16.8348 12.6933 15.96C12.7003 15.0852 13.0509 14.2482 13.6695 13.6295C14.2882 13.0109 15.1252 12.6603 16 12.6533ZM21.36 9.50667C21.0488 9.50667 20.7504 9.63029 20.5303 9.85033C20.3103 10.0704 20.1867 10.3688 20.1867 10.68C20.1867 10.9912 20.3103 11.2896 20.5303 11.5097C20.7504 11.7297 21.0488 11.8533 21.36 11.8533C21.6712 11.8533 21.9696 11.7297 22.1897 11.5097C22.4097 11.2896 22.5333 10.9912 22.5333 10.68C22.5333 10.3688 22.4097 10.0704 22.1897 9.85033C21.9696 9.63029 21.6712 9.50667 21.36 9.50667Z" fill="black"/>
</g>
<defs>
<clipPath id="clip0_1_9892">
<rect width="32" height="32" fill="white"/>
</clipPath>
</defs>
</svg>
