<svg width="14" height="12" viewBox="0 0 14 12" fill="none" xmlns="http://www.w3.org/2000/svg">
<path d="M6.66687 6.00001H2.61248M2.49756 6.53148L1.82772 8.53241C1.46085 9.62828 1.27742 10.1762 1.40906 10.5136C1.52337 10.8067 1.7689 11.0288 2.07187 11.1134C2.42074 11.2107 2.94767 10.9736 4.00154 10.4994L10.7578 7.45908C11.7865 6.99614 12.3008 6.76474 12.4597 6.44321C12.5979 6.16388 12.5979 5.83608 12.4597 5.55674C12.3008 5.23528 11.7865 5.00381 10.7578 4.54091L3.98989 1.49536C2.93919 1.02256 2.41385 0.78615 2.06533 0.88313C1.76265 0.96735 1.51715 1.18892 1.40243 1.4814C1.27034 1.8182 1.45181 2.36495 1.81477 3.45846L2.49886 5.51954C2.56119 5.70734 2.59237 5.80128 2.60467 5.89728C2.61559 5.98254 2.61547 6.06881 2.60434 6.15401C2.59179 6.25001 2.56038 6.34381 2.49756 6.53148Z" stroke="black" stroke-linecap="round" stroke-linejoin="round"/>
</svg>
