<svg width="16" height="16" viewBox="0 0 16 16" fill="none" xmlns="http://www.w3.org/2000/svg">
<g clip-path="url(#clip0_1_8773)">
<path d="M10.6673 7C10.6673 7.55227 10.3689 8 10.0007 8C9.63245 8 9.33398 7.55227 9.33398 7C9.33398 6.44771 9.63245 6 10.0007 6C10.3689 6 10.6673 6.44771 10.6673 7Z" fill="#0190B1"/>
<path d="M6.66732 7C6.66732 7.55227 6.36884 8 6.00065 8C5.63246 8 5.33398 7.55227 5.33398 7C5.33398 6.44771 5.63246 6 6.00065 6C6.36884 6 6.66732 6.44771 6.66732 7Z" fill="#0190B1"/>
<path fill-rule="evenodd" clip-rule="evenodd" d="M7.96238 0.833344H8.03892C9.57785 0.833337 10.7839 0.83333 11.7249 0.959844C12.688 1.08934 13.4481 1.35956 14.0446 1.9561C14.6411 2.55264 14.9113 3.31266 15.0409 4.27582C15.1673 5.2168 15.1673 6.42283 15.1673 7.96174V8.03828C15.1673 9.57721 15.1673 10.7832 15.0409 11.7242C14.9113 12.6873 14.6411 13.4474 14.0446 14.0439C13.4481 14.6405 12.688 14.9107 11.7249 15.0402C10.7839 15.1667 9.57785 15.1667 8.03892 15.1667H7.96238C6.42347 15.1667 5.21744 15.1667 4.27646 15.0402C3.3133 14.9107 2.55328 14.6405 1.95674 14.0439C1.3602 13.4474 1.08998 12.6873 0.960484 11.7242C0.833971 10.7832 0.833978 9.57721 0.833984 8.03828V7.96174C0.833978 6.42283 0.833971 5.2168 0.960484 4.27582C1.08998 3.31266 1.3602 2.55264 1.95674 1.9561C2.55328 1.35956 3.3133 1.08934 4.27646 0.959844C5.21744 0.83333 6.42347 0.833337 7.96238 0.833344ZM4.4097 1.95092C3.55743 2.06551 3.04362 2.28344 2.66385 2.66321C2.28408 3.04298 2.06615 3.55679 1.95156 4.40906C1.83504 5.27572 1.83398 6.41452 1.83398 8.00001C1.83398 9.58548 1.83504 10.7243 1.95156 11.5909C2.06615 12.4432 2.28408 12.957 2.66385 13.3368C3.04362 13.7166 3.55743 13.9345 4.4097 14.0491C5.27636 14.1656 6.41516 14.1667 8.00065 14.1667C9.58612 14.1667 10.7249 14.1656 11.5916 14.0491C12.4439 13.9345 12.9577 13.7166 13.3375 13.3368C13.7172 12.957 13.9352 12.4432 14.0497 11.5909C14.1663 10.7243 14.1673 9.58548 14.1673 8.00001C14.1673 6.41452 14.1663 5.27572 14.0497 4.40906C13.9352 3.55679 13.7172 3.04298 13.3375 2.66321C12.9577 2.28344 12.4439 2.06551 11.5916 1.95092C10.7249 1.8344 9.58612 1.83334 8.00065 1.83334C6.41516 1.83334 5.27636 1.8344 4.4097 1.95092ZM5.59896 10.3689C5.7634 10.1471 6.07655 10.1005 6.29839 10.265C6.78398 10.6249 7.37005 10.8333 8.00065 10.8333C8.63125 10.8333 9.21732 10.6249 9.70292 10.265C9.92478 10.1005 10.2379 10.1471 10.4023 10.3689C10.5668 10.5908 10.5203 10.9039 10.2984 11.0683C9.65012 11.5489 8.85732 11.8333 8.00065 11.8333C7.14398 11.8333 6.35118 11.5489 5.70291 11.0683C5.48106 10.9039 5.43453 10.5908 5.59896 10.3689Z" fill="#0190B1"/>
</g>
<defs>
<clipPath id="clip0_1_8773">
<rect width="16" height="16" fill="white"/>
</clipPath>
</defs>
</svg>
