<svg width="32" height="32" viewBox="0 0 32 32" fill="none" xmlns="http://www.w3.org/2000/svg">
<g clip-path="url(#clip0_1_9894)">
<path d="M26.6667 0C28.0812 0 29.4377 0.561903 30.4379 1.5621C31.4381 2.56229 32 3.91885 32 5.33333V26.6667C32 28.0812 31.4381 29.4377 30.4379 30.4379C29.4377 31.4381 28.0812 32 26.6667 32H5.33333C3.91885 32 2.56229 31.4381 1.5621 30.4379C0.561903 29.4377 0 28.0812 0 26.6667V5.33333C0 3.91885 0.561903 2.56229 1.5621 1.5621C2.56229 0.561903 3.91885 0 5.33333 0L26.6667 0ZM16.2933 6.66667H15.6C14.6052 6.68573 13.6367 6.98982 12.8095 7.54286C11.9823 8.09589 11.3312 8.87463 10.9333 9.78667C10.6275 10.7644 10.5276 11.795 10.64 12.8133L10.7333 14.4L10.6933 14.44C10.5232 14.5498 10.322 14.6013 10.12 14.5867C9.82667 14.5867 9.48 14.5067 9.09333 14.32C9.02147 14.2907 8.94421 14.2771 8.86667 14.28C8.53333 14.28 8.13333 14.48 8.06667 14.7867C8.04 14.96 8.12 15.3067 8.97333 15.64L9.14667 15.7067L9.25333 15.7333C9.68 15.8667 10.32 16.08 10.52 16.5333C10.6133 16.7467 10.6 17 10.4933 17.28L10.36 17.6C10.0667 18.2 8.76 20.5733 6.17333 21C6.12155 21.0097 6.0752 21.0382 6.04319 21.0801C6.01119 21.1219 5.9958 21.1742 6 21.2267C6 21.2667 6 21.3067 6.02667 21.3467C6.16 21.6133 6.69333 22.0133 8.56 22.3067C8.69333 22.32 8.77333 22.4933 8.82667 22.7867L8.86667 22.9467C8.90667 23.0933 8.93333 23.2533 8.98667 23.4C9.04 23.5867 9.16 23.6133 9.28 23.6133C9.34667 23.6133 9.44 23.6133 9.54667 23.5867L9.69333 23.5467C10.3326 23.4025 10.9938 23.3844 11.64 23.4933C12.04 23.56 12.4 23.76 12.76 23.9867L13.56 24.5333C14.2 24.96 14.8933 25.3333 15.88 25.3333H16.12C17.12 25.3333 17.8 24.96 18.44 24.5333L18.8133 24.28C19.32 23.92 19.8 23.5867 20.36 23.4933C20.9386 23.3961 21.5297 23.4006 22.1067 23.5067L22.3067 23.5467L22.64 23.6H22.7467C22.88 23.6 22.9733 23.5333 23.0133 23.4L23.08 23.1733L23.1333 22.9467C23.2267 22.52 23.28 22.32 23.44 22.3067C25.3067 22.0133 25.84 21.6133 25.9733 21.3467C25.9909 21.3044 26 21.2591 26 21.2133C26.0009 21.163 25.984 21.1141 25.9523 21.075C25.9206 21.036 25.8761 21.0094 25.8267 21C23.4533 20.6133 22.1467 18.56 21.7333 17.7733L21.5867 17.4667C21.4 17.1067 21.3733 16.8 21.48 16.5333C21.6267 16.1733 22.0533 15.9733 22.44 15.84L22.9467 15.6667L23.0267 15.64C23.7867 15.3467 23.9333 15.0533 23.9333 14.84C23.9333 14.6667 23.7867 14.4933 23.56 14.3867L23.44 14.3333C23.3297 14.2893 23.2121 14.2666 23.0933 14.2667C23.0133 14.2667 22.8933 14.2667 22.7867 14.32C22.5067 14.4533 22.24 14.5467 21.9867 14.5867H21.8267C21.4533 14.5867 21.2933 14.4133 21.2667 14.4L21.3333 13.1467C21.4 11.9333 21.4267 10.6 21.0667 9.78667C20.6577 8.85814 19.9874 8.06871 19.1374 7.51469C18.2874 6.96067 17.2946 6.66601 16.28 6.66667H16.2933Z" fill="black"/>
</g>
<defs>
<clipPath id="clip0_1_9894">
<rect width="32" height="32" fill="white"/>
</clipPath>
</defs>
</svg>
