<svg width="32" height="32" viewBox="0 0 32 32" fill="none" xmlns="http://www.w3.org/2000/svg">
<path d="M26.6667 0C28.0812 0 29.4377 0.561903 30.4379 1.5621C31.4381 2.56229 32 3.91885 32 5.33333V26.6667C32 28.0812 31.4381 29.4377 30.4379 30.4379C29.4377 31.4381 28.0812 32 26.6667 32H5.33333C3.91885 32 2.56229 31.4381 1.5621 30.4379C0.561903 29.4377 0 28.0812 0 26.6667V5.33333C0 3.91885 0.561903 2.56229 1.5621 1.5621C2.56229 0.561903 3.91885 0 5.33333 0L26.6667 0ZM16.1867 6C14.4936 6.0006 12.8297 6.4404 11.3575 7.27642C9.88525 8.11244 8.65509 9.31609 7.78719 10.7698C6.91929 12.2234 6.44335 13.8774 6.40587 15.57C6.36838 17.2626 6.77064 18.936 7.57333 20.4267L7.77333 20.7733L6 26L11.44 24.2667C12.9311 25.0819 14.6078 25.4971 16.307 25.4718C18.0062 25.4465 19.6699 24.9816 21.136 24.1223C22.6021 23.263 23.8207 22.0387 24.6731 20.5686C25.5255 19.0984 25.9827 17.4326 26 15.7333C26 10.36 21.6 6 16.1867 6ZM16.1867 7.54667C20.7333 7.54667 24.44 11.2267 24.44 15.7467C24.4387 17.2053 24.0497 18.6373 23.3128 19.896C22.5758 21.1548 21.5175 22.1949 20.2462 22.91C18.9749 23.625 17.5363 23.9891 16.0779 23.9651C14.6195 23.9411 13.1938 23.5298 11.9467 22.7733L11.64 22.5733L8.46667 23.5867L9.49333 20.5467C8.47582 19.1534 7.92932 17.4719 7.93333 15.7467C7.93683 14.6663 8.15308 13.5972 8.56974 12.6005C8.98641 11.6037 9.59532 10.6988 10.3617 9.93733C11.1281 9.17589 12.037 8.57286 13.0364 8.16267C14.0359 7.75248 15.1063 7.54316 16.1867 7.54667ZM12.88 11.2933C12.758 11.298 12.6383 11.3276 12.5282 11.3804C12.4182 11.4331 12.3201 11.5079 12.24 11.6L12.0533 11.8C11.7867 12.1067 11.3867 12.6667 11.3867 13.5867C11.3867 14.5467 11.96 15.4667 12.24 15.8667L12.4267 16.1333C13.417 17.6703 14.8223 18.8953 16.48 19.6667L17.0133 19.8533C18.9333 20.5733 18.9733 20.2933 19.3733 20.2533C19.8133 20.2133 20.8 19.68 21 19.12C21.2 18.56 21.2 18.08 21.1333 17.9867C21.1067 17.92 21.0267 17.88 20.9333 17.8267L19.44 17.1067C19.3085 17.0447 19.1751 16.9869 19.04 16.9333C18.8133 16.8533 18.64 16.8 18.4933 17.0533C18.3333 17.2933 17.8667 17.8267 17.7333 17.9867C17.6 18.12 17.4933 18.16 17.3067 18.0933L16.7733 17.8533C15.5682 17.3004 14.5726 16.3749 13.9333 15.2133C13.8 14.9733 13.92 14.84 14.04 14.72L14.4 14.3067C14.5333 14.1733 14.56 14.0667 14.64 13.9067C14.6681 13.8536 14.6839 13.7949 14.6862 13.7349C14.6885 13.6748 14.6773 13.6151 14.6533 13.56L14.52 13.2533L13.88 11.72C13.68 11.24 13.48 11.32 13.3467 11.32L12.88 11.2933Z" fill="black"/>
</svg>
